#!OML:ASF F:\VICON\USERDATA\INSTALL\rory3\rory3.ASF
:FULLY-SPECIFIED
:DEGREES
150
root 0.5352487806775137 17.65049184248302 39.26924400576235 1.7514848226492976 1.2253609256143234 -0.24863525863446712
lfemur -15.516834531404744 -0.26137111029747273 -22.41813917341499
ltibia 40.27010744965811
lfoot 4.553313869821356 -10.370364470093739
ltoes -8.219145042391958
rfemur -15.718990335043115 3.279168249352278 28.094886728578672
rtibia 61.59970641470255
rfoot -0.20747396440959698 -5.873255848873249
rtoes -3.577434469605211
lowerback 13.370761594858298 0.7629721942839254 1.232106015432552
upperback -0.6416028916486749 1.7458251171358947 1.0140618726448523
thorax -8.11451908170719 1.1305285650188512 0.9999243610754703
lowerneck -18.993188761682283 -4.028349099305208 -2.2885698100238128
upperneck 13.833111960797897 -5.425379690886995 2.980326348863811
head 7.418979588308324 -2.534775877988656 0.7368300062448669
lclavicle 3.0724827264545893e-16 -4.3067221206564905e-16
lhumerus -46.91123758678327 -14.40209376028878 97.96635007855579
lradius 109.41604888583926
lwrist 32.310218120198016
lhand -25.926626392536136 3.0596876652982674
lfingers 7.125020000000001
lthumb 0.8005606372085872 33.055882551728764
rclavicle 3.0728743657241976e-16 -4.3064985682852227e-16
rhumerus -42.079476187228195 9.15617128361005 -96.13665051164476
rradius 103.23756090491626
rwrist -19.32992473638421
rhand -18.514380479855948 37.48158896735118
rfingers 7.125020000000001
rthumb 7.9454206059544035 7.466393700971386
151
root 0.537217041623737 17.65291792914581 39.89723291994041 1.772817383612645 1.4009108975077353 -0.18365818098979103
lfemur -15.289292704069457 -0.3045872851237468 -22.578804836706695
ltibia 39.95654826453628
lfoot 3.7748136767122196 -10.38927675440956
ltoes -8.045483058260405
rfemur -18.109772644478134 3.18633259458766 27.610760416869912
rtibia 60.51856851256701
rfoot 0.6855006817132256 -5.771318473319796
rtoes -3.7731175108492923
lowerback 13.361687364287851 0.6150475405732034 0.957960982466478
upperback -0.6039234617452656 1.6928930065136982 0.9858942520434599
thorax -8.175183225274003 1.0421109618405429 1.0528970959252668
lowerneck -19.098632322193364 -4.024801082431428 -2.3114642975861437
upperneck 13.916117883903151 -5.2944795226468795 2.9903925236350473
head 7.415732469766001 -2.53164360783596 0.7411958278688515
lclavicle 3.0724827264545893e-16 -4.3067221206564905e-16
lhumerus -46.35177413651445 -14.529091595963074 98.00740033215239
lradius 109.22880504234202
lwrist 32.269606612946326
lhand -25.962903880046454 2.989166754984059
lfingers 7.125020000000001
lthumb 0.7463948602147601 32.98127798349614
rclavicle 3.0728743657241976e-16 -4.3064985682852227e-16
rhumerus -42.783364601104665 9.013322500836239 -96.2570645790622
rradius 103.37651500432939
rwrist -19.328338002494704
rhand -18.51701037923129 37.48602888042221
rfingers 7.125020000000001
rthumb 7.925483629043116 7.380215111567474
152
root 0.5300013431011644 17.630418896927313 39.096620432997625 1.7308360092968185 1.2462915481127137 -0.21877980970680144
lfemur -12.613295435536594 -0.011695972475320837 -22.148494443110742
ltibia 40.26868407692394
lfoot 2.7287192721348825 -10.504656652896601
ltoes -8.144812305938
rfemur -16.983712939571237 3.323522354400272 28.11907909530728
rtibia 59.44164865844823
rfoot 0.25247644899513566 -6.280930269761929
rtoes -3.6422287279819567
lowerback 13.328663656223512 0.4431898823158802 0.5939847828894332
upperback -0.5643585015407253 1.629465503348108 0.9761365182358992
thorax -8.115043297477346 1.0492593975828577 1.3445794347978774
lowerneck -19.038153263983382 -3.951862576970906 -2.290711009741348
upperneck 13.975586744563907 -5.178494230590039 2.9930500945935705
head 7.42361854332531 -2.5174765200788087 0.7498466538188888
lclavicle 3.0724827264545893e-16 -4.3067221206564905e-16
lhumerus -45.050271446490626 -14.3933029183759 98.0802024751471
lradius 109.17275073950417
lwrist 32.07886841961353
lhand -25.93892401816082 2.963056823612731
lfingers 7.125020000000001
lthumb 0.7214571887030244 32.97881191132983
rclavicle 3.0728743657241976e-16 -4.3064985682852227e-16
rhumerus -43.44884654929698 8.904590706948305 -96.34820036829741
rradius 103.43064528097887
rwrist -19.34676082984869
rhand -18.542662571937242 37.436323897630835
rfingers 7.125020000000001
rthumb 7.89329762759108 7.356828023497926
153
root 0.550898192082241 17.691531054472634 41.03887695625048 1.9456291819950542 1.6351610500884233 -0.01751547086825389
lfemur -13.342212520296812 -0.26561975892428435 -22.563544327904584
ltibia 41.28652918787704
lfoot 2.847666547233703 -10.2130514016868
ltoes -8.243565831283854
rfemur -18.367935707736656 3.1959965062075515 27.589440522895185
rtibia 58.5322415581965
rfoot 0.9478397758983652 -6.274403437257645
rtoes -3.5907316817874806
lowerback 13.302644878109877 0.3086255179870685 0.2865427103520888
upperback -0.5509559572289437 1.5165617408824903 0.9599413201878044
thorax -8.180025082450175 0.9411479555874794 1.3064853077368672
lowerneck -18.981916551351095 -3.8568425440787615 -2.262374755603884
upperneck 13.979194313020802 -5.1401294600682235 2.9633483267454137
head 7.429977771560563 -2.506710775808738 0.7547728182951294
lclavicle 3.0724827264545893e-16 -4.3067221206564905e-16
lhumerus -44.71703645412827 -14.489969709778007 98.00009421657079
lradius 109.43647890674609
lwrist 32.10664739308343
lhand -25.93617537708438 2.924490223118541
lfingers 7.125020000000001
lthumb 0.577575527633257 32.78691268137836
rclavicle 3.0728743657241976e-16 -4.3064985682852227e-16
rhumerus -44.04394001383111 8.817405750225806 -96.40456761267455
rradius 103.38156893006062
rwrist -19.365304531705064
rhand -18.51377379380871 37.44016195012482
rfingers 7.125020000000001
rthumb 7.876587221764275 7.317226591369339
154
root 0.5441650020415221 17.679806500472992 39.970257728951225 1.8874683868219975 1.484036560917741 -0.16594965434915987
lfemur -9.627925583318424 0.23179000025875263 -21.510982414251146
ltibia 42.528000383020355
lfoot 3.032205540431712 -10.148856729828442
ltoes -8.042869737127344
rfemur -20.27942463536498 2.962502569154052 26.984621958811893
rtibia 57.42891025082067
rfoot 0.7793458633146726 -6.340516513494729
rtoes -3.5032194133441763
lowerback 13.314723790685608 0.22773694619777007 0.11798251652429559
upperback -0.5457931641120677 1.2773269963697476 0.9351154640665995
thorax -8.251744165829546 0.7457754853351373 1.1129421705971392
lowerneck -18.99492894785189 -3.8151141577978573 -2.2925097238196286
upperneck 13.991028513932395 -5.143482254411067 2.9539509297974558
head 7.428738460007718 -2.483470780515535 0.7584892880267541
lclavicle 3.0724827264545893e-16 -4.3067221206564905e-16
lhumerus -43.80338091230294 -14.403932467448879 98.02359064047144
lradius 109.42479283765952
lwrist 32.25560450813129
lhand -25.906261853296517 2.940132507833282
lfingers 7.125020000000001
lthumb 0.5307369486768356 32.76745543830486
rclavicle 3.0728743657241976e-16 -4.3064985682852227e-16
rhumerus -44.69030462787819 8.70755640770054 -96.43946165487151
rradius 103.23915922391707
rwrist -19.306835243618323
rhand -18.483099234408783 37.49712009576133
rfingers 7.125020000000001
rthumb 7.887064435905852 7.369624716500918
